
<svg version="1.1" id="Laag_1" xmlns="http://www.w3.org/2000/svg" xmlns:xlink="http://www.w3.org/1999/xlink" x="0px" y="0px" viewBox="0 0 807 172.9" style="enable-background:new 0 0 807 172.9;" xml:space="preserve">
<style type="text/css">
	.st0{fill:#00ACA9;}
	.st1{fill-rule:evenodd;clip-rule:evenodd;fill:#00ACA9;}
	.st2{clip-path:url(#SVGID_2_);fill:url(#SVGID_3_);}
	.st3{fill:#005076;}
</style>
<rect x="560" y="6.7" class="st0" width="3.1" height="73.7"/>
<g>
	<path class="st1" d="M677.1,30.3c-3.8,0-6.5,1.7-8.4,4.3h-0.1V21.9c0-1.4-0.8-1.9-1.8-1.9h-6.9v36.1h8.7V45.4
		c0-5.4,1.8-7.9,5.4-7.9c2.4,0,4,1.6,4,6.3v12.2h8.7V40.4C686.8,35.1,684,30.3,677.1,30.3"/>
	<path class="st1" d="M640.6,43.7c0-4.4,3-6.9,6.7-6.9c1.5,0,2.7,0.2,3.8,0.7c0.3,0.1,0.4,0.2,0.7,0.2h0.1c0.5,0,0.9-0.4,0.9-0.9
		v-5.2c-1.9-0.8-4.1-1.2-6.5-1.2c-8.4,0-14.8,4.8-14.8,13.2c0,8.4,6.4,13.1,14.7,13.1c2.3,0,4.8-0.4,7-1.1v-6.6
		c-1.5,0.8-3.5,1.2-5.5,1.2C644,50.3,640.6,47.8,640.6,43.7"/>
	<path class="st1" d="M728.2,30.3c-3.6,0-6.9,1.5-8.9,4.8c-1.4-3.3-4.3-4.8-7.9-4.8c-3.7,0-6.5,1.3-9.4,4.2c0,0-0.5,0.6-1.1,0.6
		c-0.3,0-0.7-0.1-0.9-0.3l-3.5-3.5c-0.2-0.2-0.6-0.4-1-0.4c-0.8,0-1.4,0.6-1.4,1.4v23.8h8.7V45.5c0-5.4,1.9-7.9,4.9-7.9
		c2.5,0,3.5,2.1,3.5,5v13.5h8.7V45.5c0-5.4,1.8-7.9,4.9-7.9c2.4,0,3.5,2.1,3.5,5v13.5h8.7V41.3C737.1,34.4,735.5,30.3,728.2,30.3"/>
	<path class="st1" d="M624.3,31.6c-0.4,0-0.7,0.2-1,0.4l-1.3,1.3c-0.2,0.2-0.6,0.4-0.9,0.4c-0.4,0-0.7-0.1-0.9-0.4
		c-2.2-2-4.5-3-7.7-3c-7.3,0-13.2,5.9-13.2,13.2c0,7.3,5.9,13.2,13.2,13.2c3.2,0,5.5-1,7.7-3c0.3-0.2,0.6-0.4,0.9-0.4
		c0.4,0,0.7,0.1,0.9,0.4l1.3,1.3c0.2,0.2,0.6,0.4,1,0.4c0.8,0,1.4-0.6,1.4-1.4V33C625.7,32.3,625.1,31.6,624.3,31.6 M612.9,49.5
		c-3.1,0-5.6-2.7-5.6-5.9c0-3.3,2.5-5.9,5.6-5.9c3.1,0,5.6,2.7,5.6,5.9C618.5,46.8,616,49.5,612.9,49.5"/>
	<path class="st1" d="M799.8,31.6c-0.4,0-0.8,0.2-1,0.4l-1.3,1.3c-0.2,0.2-0.6,0.4-0.9,0.4s-0.7-0.1-0.9-0.4c-2.2-2-4.5-3-7.7-3
		c-7.3,0-13.2,5.9-13.2,13.2c0,7.3,5.9,13.2,13.2,13.2c3.2,0,5.5-1,7.7-3c0.2-0.2,0.6-0.4,0.9-0.4s0.7,0.1,0.9,0.4l1.3,1.3
		c0.2,0.2,0.6,0.4,1,0.4c0.8,0,1.4-0.6,1.4-1.4V33C801.2,32.3,800.6,31.6,799.8,31.6 M788.4,49.5c-3.1,0-5.6-2.7-5.6-5.9
		c0-3.3,2.5-5.9,5.6-5.9c3.1,0,5.6,2.7,5.6,5.9C794,46.8,791.5,49.5,788.4,49.5"/>
	<path class="st1" d="M756.8,30.4c-7.8,0-13.4,4.8-13.4,13.2c0,8.3,6.3,13.2,14.6,13.2c3.2,0,6.4-0.5,9.2-1.6V49
		c-2.6,1.4-5.3,1.9-7.7,1.9c-4.2,0-6.9-1.3-7.4-4.8h17.3v-1.6C769.5,37,766.1,30.4,756.8,30.4 M760.6,41.2h-7.7c-0.6,0-1-0.5-0.9-1
		c0.5-2.4,1.9-4.3,4.7-4.3c3,0,4.4,1.8,4.8,4.2C761.5,40.9,761.1,41.2,760.6,41.2"/>
</g>
<g>
	<defs>
		<path id="SVGID_1_" d="M6.4,27.3c0,9.2,5,15.4,14.2,19.4l16.7,6.6c2.4,1,5.6,2.5,5.6,6.5c0,2.6-1,7.5-12,7.5
			c-3.9,0-10.9-0.8-14.7-1.8c-3.8-1-7.7,1.2-8.7,5c-1,3.7,1,7.3,5,8.7c3.5,1.2,10.8,2.3,18.6,2.3c13.1,0,25.9-6.6,25.9-21.6
			c0-10.1-6.6-16.3-14.2-19.4c-2.8-1.1-14.6-5.9-16.5-6.7c-3.6-1.5-5.8-3.1-5.8-6.7c0-6.5,8.5-7.4,12-7.4c3.6,0,9.3,0.8,12.5,1.4
			c3.8,0.7,7.5-1.9,8.2-5.7c0.4-2.2,0.1-7-6.3-8.3c-4.3-0.9-9.2-1.6-14.6-1.6C19.2,5.6,6.4,12.5,6.4,27.3 M178.8,11.6
			c-0.5-3.4-3.4-6-7-6c-3.9,0-7.1,3.2-7.1,7.1v61.8c0,3.9,3.2,7.1,7.1,7.1c3.9,0,7.1-3.2,7.1-7.1V26.9c11.3-4.7,15.6-7.1,23.5-7.1
			c7.4,0,10.1,4.6,10,12.5v42.2c0,3.9,3.2,7.1,7.1,7.1s7.1-3.2,7.1-7.1V31.7c-0.1-16.1-9.4-26.1-24.6-26.1
			C192.7,5.6,186,8.5,178.8,11.6 M339.5,10.4c-1-2.8-3.6-4.8-6.7-4.8c-3.9,0-7.1,3.2-7.1,7.1v61.8c0,3.9,3.2,7.1,7.1,7.1
			c3.9,0,7.1-3.2,7.1-7.1V26.9c1.7-1.3,10.4-7.1,15.5-7.1c2.3,0,4.9,0.4,6.8,1c3.7,1.2,7.7-0.8,8.9-4.5c1.1-3.4-0.3-7.3-4.5-8.9
			c-1.8-0.7-5.2-1.7-11.1-1.8C350.6,5.6,345.7,7.1,339.5,10.4 M474.6,27.3c0,9.2,5,15.4,14.2,19.4l16.7,6.6c2.4,1,5.6,2.5,5.6,6.5
			c0,2.6-1,7.5-12,7.5c-3.9,0-10.9-0.8-14.7-1.8c-3.8-1-7.7,1.2-8.7,5c-1,3.7,1,7.3,5,8.7c3.5,1.2,10.8,2.3,18.6,2.3
			c13.1,0,25.9-6.6,25.9-21.6c0-10.1-6.6-16.3-14.2-19.4c-2.8-1.1-14.6-5.9-16.5-6.7c-3.6-1.5-5.8-3.1-5.8-6.7c0-6.5,8.5-7.4,12-7.4
			c3.6,0,9.3,0.8,12.5,1.4c3.9,0.7,7.5-1.9,8.2-5.7c0.4-2.2,0.1-7-6.3-8.3c-4.3-0.9-9.2-1.6-14.6-1.6
			C487.4,5.6,474.6,12.5,474.6,27.3 M126.6,11l-9.5,40.7h-5.7c-7.7,0-11.7-2.7-13.5-8.8l-9.4-32.2c-1.1-3.7-5.1-5.9-8.8-4.8
			c-3.7,1.1-5.9,5.1-4.8,8.8l9.4,32.2c3.1,11.1,12.1,19,27.1,19h2.3l-1.8,7.5c-0.9,3.5-6.2,5.4-11.7,5.4c-4.7,0-9.3-0.7-12-1.2
			c-3.8-0.7-7.6,1.8-8.3,5.6c-0.7,3.6,1.3,7.3,5.6,8.3c3.2,0.8,8.7,1.5,14.8,1.5c11.6,0,23-4.8,26-17.8l14.2-60.9
			c0.9-3.8-1.5-7.6-5.3-8.5c-0.6-0.1-1.1-0.2-1.6-0.2C130.2,5.6,127.3,7.8,126.6,11 M434.8,12.7v47.6c-11.3,4.7-15.6,7.1-23.5,7.1
			c-7.4,0-10.1-4.6-10-12.5V12.7c0-3.9-3.2-7.1-7.1-7.1c-3.9,0-7.1,3.2-7.1,7.1v42.7c0.1,16.1,9.4,26.1,24.6,26.1c9.3,0,16-3,23.2-6
			c0.5,3.4,3.4,6,7,6c3.9,0,7.1-3.2,7.1-7.1V12.7c0-3.9-3.2-7.1-7.1-7.1C438,5.6,434.8,8.7,434.8,12.7 M260.4,1.7l-7.9,6.7
			c-2.3,1.9-3.1,5.1-2.1,7.8c1,2.8,3.7,4.6,6.7,4.6h0.8v34.4c0,17,10.2,26.3,24.6,26.3h0c9.3,0,16.1-3.1,16.7-3.3
			c3.6-1.6,5.2-5.8,3.6-9.3c-1.6-3.6-5.4-5-9.2-3.6c-0.9,0.3-5.6,2.1-11.1,2.1c-7.3,0-10.4-3.7-10.4-12.3V20.9h14.7
			c3.9,0,7.1-3.2,7.1-7.1c0-3.9-3.2-7.1-7.1-7.1h-14.8c-0.1-2.6-1.7-4.9-4.1-6.1c-0.9-0.4-2-0.7-3-0.7C263.4,0,261.7,0.6,260.4,1.7"
			/>
	</defs>
	<clipPath id="SVGID_2_">
		<use xlink:href="#SVGID_1_"  style="overflow:visible;"/>
	</clipPath>
	
		<linearGradient id="SVGID_3_" gradientUnits="userSpaceOnUse" x1="130.5345" y1="520.5524" x2="135.5355" y2="520.5524" gradientTransform="matrix(-8.000000e-07 -18.5801 -18.5801 8.000000e-07 9937.75 2518.2598)">
		<stop  offset="0" style="stop-color:#17ACA7"/>
		<stop  offset="0.3974" style="stop-color:#0F8D9B"/>
		<stop  offset="1" style="stop-color:#005685"/>
	</linearGradient>
	<rect x="6.4" class="st2" width="518.8" height="92.9"/>
</g>
<g>
	<path class="st3" d="M20.6,141.6c0,0-1-0.6-2.3-0.6c-1.4,0-4.5,1-6.6,1.9v20.3c0,1.2-1,2.2-2.2,2.2c-1.2,0-2.2-1-2.2-2.2v-24
		c0-1.2,1-2.2,2.2-2.2c0.9,0,1.7,0.5,2,1.3c2-0.8,4.8-1.8,6.8-1.8c2.5,0,4.4,1.1,4.6,1.2c1,0.6,1.4,1.9,0.8,3
		C23,141.9,21.7,142.2,20.6,141.6"/>
	<path class="st3" d="M50.6,152.5l-18.9,1.2c0.7,5.2,4.2,8.1,9.3,8.1c1.9,0,3.7-0.3,5.4-1c1.1-0.4,2.3,0,2.7,1.1
		c0.5,1.1,0,2.3-1.1,2.7c-2.1,0.9-4.7,1.3-7,1.3c-8.1,0-13.5-5.7-13.5-13.7v-2.2c0-6.6,4.4-13.3,12.8-13.3c7.5,0,12.2,5.3,12.2,13.8
		C52.5,151.6,51.7,152.5,50.6,152.5 M48.3,148.6c-0.5-4-2.4-7.8-8-7.8c-5.8,0-8.5,4.3-8.7,8.8L48.3,148.6z"/>
	<path class="st3" d="M79.1,163.4c0,1.2-0.9,2.1-2.1,2.1c-0.9,0-1.7-0.6-2-1.6c-2.4,1-5.5,2.1-8,2.1c-5.2,0-8.9-3.7-8.9-8.7
		c0-5.2,3.9-6.9,8.2-7.7l8.6-1.6v-3.4c0-2.2-3-3.8-5.4-3.8c-1.9,0-6.6,0.9-8.2,1.3c-1.1,0.2-2.2-0.5-2.5-1.6
		c-0.2-1.1,0.5-2.2,1.6-2.5c2.8-0.6,6.3-1.4,9.1-1.4c4.6,0,9.6,3.2,9.6,7.9V163.4z M75,152.1l-7.9,1.5c-4,0.7-4.8,1.7-4.8,3.6
		c0,2.7,1.9,4.5,4.8,4.5c2.3,0,5.9-1.5,8-2.4V152.1z"/>
	<path class="st3" d="M93.1,163.3c0,1.2-1,2.2-2.2,2.2c-1.2,0-2.2-1-2.2-2.2V128c0-1.2,1-2.2,2.2-2.2c1.2,0,2.2,1,2.2,2.2V163.3z"/>
	<path class="st3" d="M138.2,152.5l-18.9,1.2c0.7,5.2,4.2,8.1,9.3,8.1c1.9,0,3.7-0.3,5.4-1c1.1-0.4,2.3,0,2.7,1.1
		c0.5,1.1,0,2.3-1.1,2.7c-2.1,0.9-4.7,1.3-7,1.3c-8.1,0-13.5-5.7-13.5-13.7v-2.2c0-6.6,4.4-13.3,12.8-13.3c7.5,0,12.2,5.3,12.2,13.8
		C140.1,151.6,139.3,152.5,138.2,152.5 M135.9,148.6c-0.5-4-2.3-7.8-8-7.8c-5.8,0-8.5,4.3-8.7,8.8L135.9,148.6z"/>
	<path class="st3" d="M155.3,165.9c-1.7,0-5.3-0.3-7.6-0.9c-1.2-0.3-1.9-1.5-1.6-2.6c0.3-1.2,1.5-1.9,2.7-1.6
		c1.7,0.4,4.8,0.7,6.5,0.7c0.6,0,5.6-0.1,5.6-3.7c0-2.1-0.6-2.6-2.5-3.3l-7.3-2.4c-2.6-0.9-5.5-2.4-5.5-7.4c0-5.5,5.2-8,10-8
		c1.8,0,5.4,0.4,7.4,0.9c1.1,0.3,1.9,1.5,1.6,2.7c-0.3,1.2-1.5,1.9-2.7,1.6c-1.6-0.4-4.8-0.8-6.3-0.8c-0.6,0-5.6,0.1-5.6,3.7
		c0,2.1,0.6,2.6,2.5,3.3l7.3,2.5c2.5,0.9,5.4,2.4,5.4,7.4C165.3,163.4,160.1,165.9,155.3,165.9"/>
	<path class="st3" d="M189.6,165c-0.2,0.1-2.3,0.9-4.3,0.9c-6.6,0-9.9-3.7-9.9-11.1v-13.4h-3.6c-1.2,0-2.2-1-2.2-2.2
		c0-1.2,1-2.2,2.2-2.2h3.6V130c0-1.2,1-2.2,2.2-2.2c1.2,0,2.2,1,2.2,2.2v7.1h6.6c1.2,0,2.2,1,2.2,2.2c0,1.2-1,2.2-2.2,2.2h-6.6v13.4
		c0,5.6,2,6.7,5.6,6.7c1,0,2.3-0.4,2.7-0.6c1.1-0.4,2.4,0.1,2.8,1.2C191.3,163.4,190.7,164.6,189.6,165"/>
	<path class="st3" d="M216,163.4c0,1.2-0.9,2.1-2.1,2.1c-0.9,0-1.7-0.6-2-1.6c-2.4,1-5.5,2.1-8,2.1c-5.2,0-8.9-3.7-8.9-8.7
		c0-5.2,3.9-6.9,8.2-7.7l8.7-1.6v-3.4c0-2.2-3-3.8-5.4-3.8c-2,0-6.6,0.9-8.2,1.3c-1.1,0.2-2.2-0.5-2.5-1.6c-0.2-1.1,0.5-2.2,1.6-2.5
		c2.8-0.6,6.3-1.4,9.1-1.4c4.6,0,9.6,3.2,9.6,7.9V163.4z M211.8,152.1l-7.9,1.5c-4,0.7-4.8,1.7-4.8,3.6c0,2.7,1.9,4.5,4.8,4.5
		c2.3,0,5.9-1.5,8-2.4V152.1z"/>
	<path class="st3" d="M241.8,165c-0.2,0.1-2.3,0.9-4.3,0.9c-6.6,0-9.9-3.7-9.9-11.1v-13.4H224c-1.2,0-2.2-1-2.2-2.2
		c0-1.2,1-2.2,2.2-2.2h3.6V130c0-1.2,1-2.2,2.2-2.2c1.2,0,2.2,1,2.2,2.2v7.1h6.6c1.2,0,2.2,1,2.2,2.2c0,1.2-1,2.2-2.2,2.2H232v13.4
		c0,5.6,2,6.7,5.6,6.7c1,0,2.3-0.4,2.7-0.6c1.1-0.4,2.4,0.1,2.8,1.2C243.5,163.4,242.9,164.6,241.8,165"/>
	<path class="st3" d="M270.4,152.5l-18.9,1.2c0.7,5.2,4.2,8.1,9.3,8.1c1.9,0,3.7-0.3,5.4-1c1.1-0.4,2.3,0,2.7,1.1
		c0.5,1.1,0,2.3-1.1,2.7c-2.1,0.9-4.7,1.3-7,1.3c-8.1,0-13.5-5.7-13.5-13.7v-2.2c0-6.6,4.4-13.3,12.8-13.3c7.5,0,12.2,5.3,12.2,13.8
		C272.4,151.6,271.5,152.5,270.4,152.5 M268.2,148.6c-0.5-4-2.4-7.8-8-7.8c-5.8,0-8.5,4.3-8.7,8.8L268.2,148.6z"/>
	<path class="st3" d="M325.8,149.5c0,0-4.2,4.1-7.8,7.5l4.8,5c0.8,0.8,0.8,2.1,0,2.9c-0.8,0.8-2.1,0.8-2.9,0l-4.9-5
		c-1.7,1.6-3.6,3.2-3.6,3.2c-2.2,1.9-5.2,2.8-7.6,2.8c-6.6,0-11.5-4.9-11.5-11.3c0-4.9,3.4-8.3,7.4-10.6c-3-3.4-4-5.6-4-8.8
		c0-5.7,4.1-9.7,9.9-9.7c2.8,0,5.5,0.9,7.2,2.3c0.9,0.7,0.9,2,0.2,2.9c-0.7,0.9-2.1,1-2.9,0.2c-0.8-0.7-2.5-1.3-4.5-1.3
		c-3.5,0-5.8,2.1-5.8,5.5c0,2.2,0.5,3.6,5.3,8.5l10.1,10.3c2.7-2.6,7.9-7.5,7.9-7.5c0.8-0.8,2.1-0.8,2.9,0.1
		C326.7,147.4,326.6,148.7,325.8,149.5 M302.5,147.1c-2.9,1.6-6.2,3.7-6.2,7.5c0,4.2,3.1,7.2,7.4,7.2c1.5,0,3.7-0.7,5.2-2
		c0,0,1.6-1.3,3.2-2.9L302.5,147.1z"/>
	<path class="st3" d="M368.9,131.2c-3.8-0.8-8-1.3-10.3-1c-2.9,0.3-5.9,1.9-5.9,5.2v5.5h15.6c1.2,0,2.2,1,2.2,2.2v20.2
		c0,1.2-1,2.2-2.2,2.2c-1.2,0-2.2-1-2.2-2.2v-18h-13.4v18c0,1.2-1,2.2-2.2,2.2c-1.2,0-2.2-1-2.2-2.2v-18h-3.1c-1.2,0-2.2-1-2.2-2.2
		c0-1.2,1-2.2,2.2-2.2h3.1v-5.5c0-5,3.8-8.9,9.7-9.5c4-0.4,7,0,11.9,1.1c1.2,0.3,1.9,1.4,1.6,2.6
		C371.3,130.7,370.1,131.5,368.9,131.2"/>
	<path class="st3" d="M403.7,163.3c0,1.2-1,2.2-2.2,2.2c-1.2,0-2.2-1-2.2-2.2v-15.4c0-4.8-1.9-6.8-6.3-6.8c-4.3,0-7.6,2.7-8.8,3.9
		v18.4c0,1.2-1,2.2-2.2,2.2c-1.2,0-2.2-1-2.2-2.2v-24c0-1.2,1-2.2,2.2-2.2c1.2,0,2.2,1,2.2,2.2v0.3c2.2-1.5,5.2-2.9,8.8-2.9
		c6.9,0,10.6,4,10.6,11.2V163.3z"/>
	<path class="st3" d="M432.2,163.4c0,1.2-0.9,2.1-2.1,2.1c-1,0-1.8-0.6-2-1.6c-2.4,1-5.5,2.1-8,2.1c-5.2,0-8.9-3.7-8.9-8.7
		c0-5.2,3.9-6.9,8.2-7.7l8.6-1.6v-3.4c0-2.2-3-3.8-5.4-3.8c-1.9,0-6.6,0.9-8.2,1.3c-1.1,0.2-2.2-0.5-2.5-1.6
		c-0.2-1.1,0.5-2.2,1.6-2.5c2.8-0.6,6.3-1.4,9.1-1.4c4.6,0,9.6,3.2,9.6,7.9V163.4z M428,152.1l-7.9,1.5c-4,0.7-4.8,1.7-4.8,3.6
		c0,2.7,1.9,4.5,4.8,4.5c2.3,0,5.9-1.5,8-2.4V152.1z"/>
	<path class="st3" d="M465.2,163.3c0,1.2-1,2.2-2.2,2.2c-1.2,0-2.2-1-2.2-2.2v-15.4c0-4.8-1.9-6.8-6.3-6.8c-4.3,0-7.6,2.7-8.8,3.9
		v18.4c0,1.2-1,2.2-2.2,2.2c-1.2,0-2.2-1-2.2-2.2v-24c0-1.2,1-2.2,2.2-2.2c1.2,0,2.2,1,2.2,2.2v0.3c2.2-1.5,5.2-2.9,8.8-2.9
		c6.9,0,10.6,4,10.6,11.2V163.3z"/>
	<path class="st3" d="M492,141.7c0,0-2.1-0.7-4.9-0.7c-6.1,0-9.9,4.3-9.9,10.3c0,6,3.8,10.3,9.9,10.3c3.2,0,4.7-0.7,4.8-0.7
		c1.1-0.5,2.4-0.1,2.9,1c0.5,1.1,0,2.4-1.1,2.9c-0.2,0.1-2.4,1.1-6.6,1.1c-8.5,0-14.2-6.2-14.2-14.6c0-8.4,5.7-14.6,14.2-14.6
		c3.6,0,6.3,1,6.4,1c1.1,0.4,1.7,1.7,1.3,2.8C494.4,141.6,493.2,142.2,492,141.7"/>
	<path class="st3" d="M523.3,152.5l-18.9,1.2c0.7,5.2,4.2,8.1,9.3,8.1c1.9,0,3.7-0.3,5.4-1c1.1-0.4,2.3,0,2.7,1.1
		c0.5,1.1,0,2.3-1.1,2.7c-2.1,0.9-4.7,1.3-7,1.3c-8.1,0-13.5-5.7-13.5-13.7v-2.2c0-6.6,4.4-13.3,12.8-13.3c7.5,0,12.2,5.3,12.2,13.8
		C525.2,151.6,524.4,152.5,523.3,152.5 M521,148.6c-0.5-4-2.4-7.8-8-7.8c-5.8,0-8.5,4.3-8.7,8.8L521,148.6z"/>
</g>
</svg>